<svg width="15" height="12" viewBox="0 0 15 12" fill="none" xmlns="http://www.w3.org/2000/svg">
<path d="M13.3333 3.33333C12.3667 3.33333 11.8267 4.29333 12.0467 5.00667L9.68 7.38C9.48 7.32 9.18667 7.32 8.98667 7.38L7.28667 5.68C7.51333 4.96667 6.97333 4 6 4C5.03333 4 4.48667 4.96 4.71333 5.68L1.67333 8.71333C0.96 8.49333 0 9.03333 0 10C0 10.7333 0.6 11.3333 1.33333 11.3333C2.3 11.3333 2.84 10.3733 2.62 9.66L5.65333 6.62C5.85333 6.68 6.14667 6.68 6.34667 6.62L8.04667 8.32C7.82 9.03333 8.36 10 9.33333 10C10.3 10 10.8467 9.04 10.62 8.32L12.9933 5.95333C13.7067 6.17333 14.6667 5.63333 14.6667 4.66667C14.6667 3.93333 14.0667 3.33333 13.3333 3.33333Z" fill="#28272A"/>
<path d="M9.33333 4L9.96 2.62L11.3333 2L9.96 1.38L9.33333 0L8.72 1.38L7.33333 2L8.72 2.62L9.33333 4Z" fill="#28272A"/>
<path d="M1.66667 5.33333L2 4L3.33333 3.66667L2 3.33333L1.66667 2L1.33333 3.33333L0 3.66667L1.33333 4L1.66667 5.33333Z" fill="#28272A"/>
</svg>
